<svg fill="none" height="32" viewBox="0 0 32 32" width="32" xmlns="http://www.w3.org/2000/svg"><g fill="#aa7a4e"><path d="m24.0416 14.7618h-9.6751c-.2508-.8932-.8164-1.6655-1.5923-2.174s-1.7097-.719-2.6288-.5924c-.91904.1265-1.76121.5815-2.37083 1.2808s-.94547 1.5957-.94547 2.5234c0 .9278.33585 1.8241.94547 2.5234s1.45179 1.1543 2.37083 1.2809c.9191.1265 1.8529-.0839 2.6288-.5924.7759-.5086 1.3415-1.2808 1.5923-2.174h4.4888v2.5947h2.0758v-2.5947h2.0757v2.5947h2.0758v-3.6326c0-.1365-.027-.2717-.0793-.3979-.0524-.1261-.1291-.2406-.2258-.3371-.0967-.0964-.2115-.1728-.3378-.2247-.1263-.052-.2616-.0786-.3981-.0781zm-13.372 2.8022c-.349 0-.69013-.1035-.98028-.2973-.29015-.1939-.5163-.4695-.64984-.7919s-.16849-.6771-.10041-1.0194c.06808-.3422.23613-.6566.48288-.9034.24675-.2467.56114-.4148.90335-.4829.3423-.068.6971-.0331 1.0195.1004.3224.1336.5979.3597.7918.6499.1939.2901.2974.6313.2974.9802.0001.2318-.0454.4614-.1341.6756-.0886.2141-.2185.4088-.3824.5727-.1638.164-.3584.294-.5725.3828-.2141.0887-.4436.1344-.6754.1344z"/><path d="m15.9999 2.07576c2.6009-.00283 5.1499.72776 7.3544 2.10793l-1.9968 1.99688h5.6647v-5.664736l-2.166 2.166056c-2.6212-1.751673-5.7037-2.68512227-8.8563-2.68188159-8.82192 0-15.99988958 7.17796159-15.99988958 15.99989159-.00362334 3.167.93814858 6.263 2.70470958 8.8915l1.50077-1.4997c-1.39408-2.2132-2.13251-4.7761-2.12972-7.3918 0-7.68026 6.24387-13.92414 13.92413-13.92414zm13.2942 5.03371-1.4987 1.4987c1.3939 2.21323 2.132 4.77623 2.1287 7.39173 0 7.6803-6.2459 13.9242-13.9242 13.9242-2.6106.003-5.1688-.7325-7.37927-2.1214l2.05497-2.056h-5.66471v5.6647l2.11-2.11c2.62551 1.7624 5.71691 2.7019 8.87901 2.6985 8.822 0 16-7.178 16-16 .0033-3.1667-.9388-6.26243-2.7058-8.89043z"/></g></svg>