<svg fill="none" height="32" viewBox="0 0 26 32" width="26" xmlns="http://www.w3.org/2000/svg"><path d="m21.9474 3.76553c-1.1931-1.19515-2.6102-2.14332-4.1701-2.790252-1.56-.646928-3.2321-.97991667-4.9209-.97991667s-3.36094.33298867-4.92087.97991667c-1.55993.646932-2.97698 1.595102-4.17008 2.790252-2.33553 2.33269-3.6834176 5.47494-3.76405399 8.77487-.08063641 3.3 1.11216399 6.5043 3.33097399 8.9483l9.54243 10.5113 9.5423-10.5113c2.214-2.4487 3.4004-5.6556 3.3129-8.9556-.0874-3.30003-1.442-6.43968-3.7826-8.76757zm-9.091 11.83257c-1.0428-.001-2.0426-.4159-2.7797-1.1537-.73701-.7377-1.15103-1.7379-1.15103-2.7807.00097-1.0422.41542-2.04144 1.15233-2.77838.737-.73695 1.7362-1.15138 2.7784-1.15236 1.0425 0 2.0423.41413 2.7794 1.15128.7372.73716 1.1513 1.73696 1.1513 2.77946.0005.5165-.1008 1.028-.2981 1.5053-.1973.4774-.4868.9111-.8519 1.2765-.365.3654-.7985.6553-1.2756.853-.4772.1978-.9886.2996-1.5051.2996z" fill="#aa7a4e"/></svg>