<svg fill="none" height="34" viewBox="0 0 28 34" width="28" xmlns="http://www.w3.org/2000/svg" xmlns:xlink="http://www.w3.org/1999/xlink"><clipPath id="a"><path d="m0 .56958h28v32.6704h-28z"/></clipPath><g clip-path="url(#a)" fill="#aa7a4e"><path d="m24.244.56958h-6.2896c-.8204 0-1.4854.66505-1.4854 1.48542 0 .82038.665 1.48543 1.4854 1.48543h6.2896c.8204 0 1.4855-.66505 1.4855-1.48543 0-.82037-.6651-1.48542-1.4855-1.48542z"/><path d="m27.7725 11.7929-3.0734-5.37516c-.0854-.15063-.2093-.27586-.359-.36287-.1497-.087-.3199-.13264-.493-.13226h-5.7455c-.1731-.00038-.3432.04526-.4929.13226-.1497.08701-.2736.21224-.359.36287l-3.0735 5.37516c-.1483.2595-.2267.5531-.2275.852v4.6213c1.2617.953 2.2846 2.186 2.9883 3.6018.7037 1.4159 1.0688 2.9759 1.0665 4.5569.0018 1.3653-.2705 2.7171-.8007 3.9753-.5302 1.2581-1.3076 2.397-2.2861 3.3492.4207.3196.9348.492 1.4631.4907h9.1892c.319.0006.635-.0617.9299-.1834.295-.1217.563-.3004.7888-.5257.2258-.2254.405-.4932.5272-.7879s.1851-.6106.1851-.9296v-18.1686c-.0008-.2989-.0792-.5925-.2275-.852z"/><path d="m7.77508 17.6497c-1.02104 0-2.03207.2011-2.97539.5918-.94331.3907-1.80046.9634-2.52244 1.6854s-1.294675 1.5791-1.685408 2.5224-.591842 1.9544-.591842 2.9754c0 2.0621.819143 4.0397 2.27725 5.4978 1.4581 1.4581 3.43575 2.2773 5.49783 2.2773 2.06207 0 4.03962-.8192 5.49772-2.2773 1.4582-1.4581 2.2773-3.4357 2.2773-5.4978 0-1.021-.2011-2.0321-.5918-2.9754-.3908-.9433-.9635-1.8004-1.6855-2.5224-.7219-.722-1.579-1.2947-2.5223-1.6854-.94336-.3907-1.95439-.5918-2.97542-.5918zm4.06822 6.3966-2.67648.9903c-.08957.0152-.18164.0026-.26388-.036-.08223-.0386-.15071-.1014-.19629-.1799-.0456-.0786-.06611-.1692-.05881-.2598.0073-.0905.04205-.1767.09964-.2469l2.18582-1.8111c.2046-.1207.4489-.1551.6789-.0957.2301.0594.4271.2078.5478.4124.1206.2047.1551.4489.0957.679-.0594.23-.2078.4271-.4124.5477zm-5.2414 2.4847-2.18577 1.8155c-.10154.0645-.21512.1079-.33384.1274-.11873.0195-.24018.0148-.35705-.0138s-.22669-.0806-.32295-.1528c-.09627-.0722-.17693-.1631-.23714-.2672-.06022-.1042-.09876-.2195-.11326-.3389-.01451-.1195-.00472-.2406.0288-.3562.03353-.1155.09006-.2231.16624-.3163.07618-.0931.17044-.1699.27706-.2256l2.67643-.9948c.08812-.0107.17743.005.25653.0453s.14442.1033.18753.1809.06209.1663.05451.2547c-.00759.0885-.0414.1726-.09709.2418zm-.23197-1.4944-2.67643-.9903c-.10662-.0557-.20088-.1325-.27706-.2256-.07618-.0932-.13271-.2007-.16624-.3163-.03352-.1156-.04331-.2367-.0288-.3562.0145-.1194.05299-.2347.1132-.3388.06022-.1042.14093-.1951.2372-.2673.09626-.0722.20608-.1242.32295-.1528s.23832-.0333.35705-.0138c.11872.0195.2323.0629.33384.1274l2.18577 1.8111c.0566.0697.09081.1548.09823.2443.00743.0895-.01229.1791-.05663.2572-.04433.078-.11119.1409-.19183.1804-.08064.0394-.17133.0536-.26018.0407zm2.39095-3.9031-.47286 2.8013c-.03126.0861-.08823.1605-.16325.2131s-.16443.0808-.25604.0808-.18101-.0282-.25603-.0808-.13205-.127-.1633-.2131l-.47281-2.8013c0-.1172.02306-.2332.0679-.3414.04483-.1083.11057-.2066.19341-.2895.08285-.0828.18118-.1485.28942-.1934.10824-.0448.22425-.0679.34141-.0679s.23318.0231.34142.0679c.10824.0449.20657.1106.28941.1934.08285.0829.14858.1812.19342.2895.04483.1082.0679.2242.0679.3414zm-1.78429 8.5824.47281-2.8013c.03125-.0861.08828-.1605.1633-.2131s.16442-.0808.25603-.0808.18102.0282.25604.0808.13199.127.16325.2131l.47286 2.8013c0 .1172-.02307.2332-.0679.3414-.04484.1083-.11057.2066-.19342.2895-.08284.0828-.18117.1485-.28941.1934-.10824.0448-.22426.0679-.34142.0679s-.23317-.0231-.34141-.0679c-.10824-.0449-.20657-.1106-.28942-.1934-.08284-.0829-.14858-.1812-.19341-.2895-.04484-.1082-.0679-.2242-.0679-.3414zm4.15741-1.3694-2.18575-1.8155c-.05759-.0703-.0924-.1564-.0997-.247-.0073-.0905.01322-.1811.05881-.2597.04558-.0786.11406-.1414.1963-.18.08223-.0386.1743-.0511.26387-.036l2.67647.9948c.1013.0597.1899.1389.2606.2328.0708.094.1224.201.1518.3149s.0361.2325.0196.349c-.0164.1165-.0556.2286-.1153.33-.0598.1013-.1389.1899-.2329.2607-.094.0707-.201.1223-.3149.1517s-.2325.0361-.349.0197c-.1164-.0165-.2286-.0557-.3299-.1154z"/></g></svg>